<?xml version="1.0" encoding="UTF-8"?><!DOCTYPE svg PUBLIC "-//W3C//DTD SVG 1.1//EN" "http://www.w3.org/Graphics/SVG/1.1/DTD/svg11.dtd"><svg xmlns="http://www.w3.org/2000/svg" xmlns:xlink="http://www.w3.org/1999/xlink"><symbol id="icon-email-big" viewBox="0 0 45 45">
  <path fill-rule="evenodd" clip-rule="evenodd" d="M30.1 27.5l-4.3-4 4.3-4-.6-.6-6.3 5.8-6.2-5.8-.6.6 4.3 4-4.3 4 .6.6 4.3-4 2 1.7 1.9-1.7 4.3 4 .6-.6zM15.6 17.2c-.8 0-1.5.7-1.5 1.6v9.4c0 .9.7 1.6 1.5 1.6h15.3c.8 0 1.5-.7 1.5-1.6v-9.4c0-.9-.7-1.6-1.5-1.6H15.6z"/>
</symbol><symbol id="icon-email-small" viewBox="0 0 40 40">
  <path d="M12.02 15.33l6.75 4.23c.22.14.52.2.81.2.3 0 .6-.06.82-.2l6.75-4.23c.44-.28.85-1.36.05-1.36H11.97c-.8 0-.4 1.08.05 1.36zm15.33 2.3l-6.95 4.24c-.3.18-.52.2-.82.2-.3 0-.5-.02-.81-.2l-6.92-4.23c-.35-.22-.35.03-.35.23v7.65c0 .45.5 1.05.9 1.05h14.4c.4 0 .9-.6.9-1.05v-7.65c0-.2 0-.45-.35-.23z" fill="#161C35"/>
</symbol><symbol id="icon-fb" viewBox="0 0 45 45">
  <path d="M24.49 33.81h-5.36v-9.67H17v-4.79h2.07c-.16-2.17.23-3.75 1.2-4.83a4.88 4.88 0 013.6-1.52h3.75v4.61h-2.95a4.7 4.7 0 00-.2 1.74h3.14v4.79h-3.14l.02 9.67zm-4.17-1.12h2.97V23h3.14V20.5h-3.14v-.57c0-1.5 0-2.84.78-3.34l.15-.1h2.2v-2.36H23.9a3.82 3.82 0 00-2.74 1.12c-.79.92-1.11 2.47-.87 4.6l.08.63h-2.2V23h2.15v9.68z" fill="#192144"/>
</symbol><symbol id="icon-htmlacademy" viewBox="0 0 27 34">
<style type="text/css">
	.st0{fill:#231F20;}
</style>
<path class="st0" d="M13.6,0l-0.2,0L0,1.4V26l13.5,8L27,26l0,0V1.4L13.6,0z M19.3,16.8l-0.9,0.5l-5-3l0,1.4l3.8,2.3l-0.8,0.5l-3-1.8
	l0,1.4l1.9,1.1l-1.8,1.1L2,13.6l11.4-6.8L25,13.5l-4.5,2.6l-7.1-4.2l0,1.4L19.3,16.8z M1.9,15.1l11.4,6.8l0,1l-8-4.7l0,1.4l8,4.8
	l0,1.1l-8-4.7l0,1.4l8,4.8l0,0l8.2-4.9v-1.3l0-0.1V17l3.4-2v10l-11.6,6.9L1.9,24.9V15.1z M1.9,12.1V3.1l11.6-1.2l11.6,1.2v9
	L13.5,5.3l0-0.1l-0.1,0l-0.1,0v0.1L1.9,12.1z"/>
</symbol><symbol id="icon-instagram" viewBox="0 0 45 45">
  <path d="M26.96 16.8a3.25 3.25 0 013.24 3.24v7.92a3.25 3.25 0 01-3.24 3.24h-7.92a3.25 3.25 0 01-3.23-3.24v-7.92a3.25 3.25 0 013.23-3.24h7.92zm0-1.08h-7.92a4.32 4.32 0 00-4.32 4.32v7.92a4.32 4.32 0 004.32 4.32h7.92a4.32 4.32 0 004.32-4.32v-7.92a4.32 4.32 0 00-4.32-4.32z" fill="#192144"/>
  <path d="M23 20.82a3.19 3.19 0 110 6.38 3.19 3.19 0 010-6.38zm0-1.08a4.27 4.27 0 100 8.54 4.27 4.27 0 000-8.54zM27.43 20.56a.96.96 0 100-1.93.96.96 0 000 1.93z" fill="#192144"/>
</symbol><symbol id="icon-phone-big" viewBox="0 0 45 45">
  <path fill-rule="evenodd" clip-rule="evenodd" d="M22.5 15.09c-2.8 0-5.6.47-6.62 1.41-.84.78-1.12 2.16-1.22 3.04l-.01.12c0 .34.3.62.65.62l2.57-.2h.07c.35-.02.63-.29.63-.63v-1.21c0-.38.33-.68.73-.68h6.4c.4 0 .72.3.72.68v1.21c0 .34.29.61.64.62l.07.01 2.57.2c.36 0 .65-.28.65-.62l-.01-.12c-.1-.88-.38-2.26-1.22-3.04-1.02-.94-3.82-1.41-6.62-1.41zm0 8.03c-.72 0-1.3.55-1.3 1.23 0 .69.58 1.24 1.3 1.24.72 0 1.3-.55 1.3-1.24 0-.68-.58-1.23-1.3-1.23zm-.98-2.78v-.77a.8.8 0 00-.82-.78.8.8 0 00-.82.78v.77l-4.4 4.45c-.31.28-.5.67-.5 1.1v1.24c0 .69.58 1.24 1.3 1.24h.33v.77c0 .43.37.77.82.77a.8.8 0 00.82-.77v-.77h8.5v.77c0 .43.37.77.82.77a.8.8 0 00.82-.77v-.77h.32c.73 0 1.31-.55 1.31-1.24V25.9c0-.43-.19-.82-.5-1.1l-4.4-4.45v-.77a.8.8 0 00-.82-.78.8.8 0 00-.82.78v.77h-1.96zm.98 1.54c1.45 0 2.62 1.1 2.62 2.47a2.55 2.55 0 01-2.62 2.47 2.55 2.55 0 01-2.62-2.47 2.55 2.55 0 012.62-2.47z"/>
</symbol><symbol id="icon-phone-small" viewBox="0 0 40 40">
  <path d="M19.8 19.2c0 .2.1.4.3.4.4 0 .7.3.7.7 0 .1.2.3.4.3l.3-.3c0-.8-.6-1.4-1.4-1.4-.2 0-.3.1-.3.3zm5.5 1.4c.2 0 .4-.2.4-.3 0-3-2.5-5.5-5.6-5.5-.2 0-.3.1-.3.3 0 .2.1.3.3.3 2.7 0 4.9 2.2 4.9 4.9 0 .1.1.3.3.3z" fill="#161C35"/>
  <path d="M22.9 20.3l.3.3c.2 0 .4-.2.4-.3 0-2-1.6-3.5-3.5-3.5-.2 0-.3.2-.3.4s.1.3.3.3c1.6 0 2.8 1.2 2.8 2.8zm-2.8-7.6c-.2 0-.3.2-.3.3 0 .2.1.4.3.4 3.9 0 7 3 7 6.9 0 .1.1.3.3.3.2 0 .4-.2.4-.3 0-4.2-3.5-7.6-7.7-7.6zm3.4 11.1l-.5.3c-.8.4-1.3 1.5-2.3.6l-2.4-2.4-2.1-2c-1-1.4.1-1.7.5-2.4l.3-.5a2.6 2.6 0 00-.5-3c-.5-.6-1.1-.8-1.8-.8s-1.4.2-2 .7v.2c-1 1-1.1 2.5-.4 4.4.7 1.9 2 3.9 3.9 5.7 2.8 2.7 5.9 4.3 8 4.3a3 3 0 002.2-.8l.2-.1a2.6 2.6 0 000-3.7c-.8-.9-2.1-1-3.1-.5z" fill="#161C35"/>
</symbol><symbol id="icon-vk" viewBox="0 0 45 45">
  <path d="M27.77 29.83a2.98 2.98 0 01-1.55-.47 7.57 7.57 0 01-1.32-1.15c-.32-.33-.87-.88-1.07-.88-.21 0-.36.69-.35 1.18 0 .33-.12.66-.35.9-.26.22-.57.35-.9.38H20.8c-2.05-.05-4-.85-5.51-2.25-2.73-2.53-5.08-7.36-5.17-7.57a1.01 1.01 0 01.1-1.1c.29-.25.65-.38 1.02-.37h3.12c.24.04.48.13.7.26.2.14.36.33.46.55.32.7.7 1.36 1.1 2 .97 1.5 1.4 1.85 1.56 1.92.17-.7.22-1.43.14-2.15.03-.33-.03-.66-.15-.96a.98.98 0 00-.58-.22l-.54-.51c-.1-.5.44-.93.82-1.1a6.39 6.39 0 012.34-.28h.52a6.7 6.7 0 011.6.15c1.26.27 1.21 1.3 1.16 2.49 0 .34-.03.75-.03 1.21v.36c-.03.33-.01.66.06.98a6.8 6.8 0 001.54-1.86c.43-.67.8-1.38 1.13-2.1a1.18 1.18 0 011.18-.72h3.46c.74 0 1.18.22 1.36.64.18.42.12 1.25-1.75 3.46l-.74.85a5.5 5.5 0 00-.92 1.19c.28.32.6.6.95.85.85.65 1.6 1.43 2.22 2.3a1.2 1.2 0 01.2 1.27 1.71 1.71 0 01-1.4.75l-2.81.03-.17-.03zm-3.94-3.63c.66 0 1.24.6 1.86 1.22.33.37.7.7 1.11.97.31.21.67.32 1.04.32h.07l2.82-.04c.14 0 .28-.04.4-.1l-.07-.12a9.87 9.87 0 00-1.99-2.04c-.88-.75-1.33-1.1-1.39-1.68-.05-.58.37-1.08 1.2-2.04l.74-.83a8.05 8.05 0 001.52-2.21 4.16 4.16 0 00-.5 0H27.4a.4.4 0 00-.18 0c-.34.8-.75 1.56-1.22 2.29-1.4 2.11-2.06 2.4-2.53 2.4a.87.87 0 01-.41-.1c-.75-.44-.75-1.39-.7-2.08v-.32c0-.49 0-.9.03-1.27.06-1.26 0-1.27-.28-1.33a6.3 6.3 0 00-1.38-.12h-.5c-.48-.01-.95.01-1.42.07.07.05.13.12.19.19.3.49.46 1.06.43 1.63.1 1.24.05 2.85-.74 3.24-.14.07-.29.1-.44.1-.7 0-1.38-.66-2.54-2.44a17.6 17.6 0 01-1.2-2.14l-.05-.08a.9.9 0 00-.24-.08H11.2c.44.92 2.51 4.97 4.84 7.09 1.3 1.2 2.99 1.9 4.76 1.97h1.37a.74.74 0 00.2-.07v-.07c0-.2 0-1.95 1.17-2.25.1-.04.19-.06.29-.08z" fill="#192144"/>
</symbol></svg>