<?xml version="1.0" encoding="UTF-8"?><!DOCTYPE svg PUBLIC "-//W3C//DTD SVG 1.1//EN" "http://www.w3.org/Graphics/SVG/1.1/DTD/svg11.dtd"><svg xmlns="http://www.w3.org/2000/svg" xmlns:xlink="http://www.w3.org/1999/xlink"><symbol id="icon-bike" viewBox="0 0 24 21">
  <path d="M16 3.6c1 0 1.8-.8 1.8-1.8S17 0 16 0s-1.8.8-1.8 1.8.8 1.8 1.8 1.8zm3 7.4c-2.8 0-5 2.3-5 5s2.2 5 5 5 5-2.3 5-5-2.2-5-5-5zm0 8.6c-1.9 0-3.5-1.6-3.5-3.5s1.6-3.5 3.5-3.5 3.5 1.6 3.5 3.5-1.6 3.5-3.5 3.5zM14.8 8.9H19V7.1h-3.2l-1.9-3.3c-.3-.5-.8-.8-1.5-.8-.5 0-.9.2-1.2.5L7.5 7.2a1.8 1.8 0 00.3 2.7l3.3 2v5H13v-6.5l-2.2-1.7 2.3-2.4 1.7 2.6zM5 11c-2.8 0-5 2.3-5 5s2.2 5 5 5 5-2.3 5-5-2.2-5-5-5zm0 8.6c-1.9 0-3.5-1.6-3.5-3.5s1.6-3.5 3.5-3.5 3.5 1.5 3.5 3.5-1.6 3.5-3.5 3.5z"/>
</symbol><symbol id="icon-bus" viewBox="0 0 17 21">
  <path d="M16.2 3.1c-.2-1.2-1-1.6-2.1-2.1-1.1-.4-3.7-1-5.6-1C6.6 0 4 .6 2.9 1c-1.1.5-1.8.9-2.1 2.1L0 9.5v8.8h1.4v1.4c0 1.7 2.5 1.7 2.5 0v-1.4h9.2v1.4c0 1.7 2.5 1.7 2.5 0v-1.4H17V9.5l-.8-6.4zM5 1.6h7c.7 0 .7 1 0 1H5c-.7.1-.7-1 0-1zm-2.3 14c-.6 0-1.2-.5-1.2-1.2s.5-1.2 1.2-1.2c.6 0 1.2.5 1.2 1.2-.1.6-.6 1.2-1.2 1.2zm5.7-5.4H2.2c-.6 0-.7-.4-.7-.9l.6-4.7c.1-.6.3-.9 1-.9h10.7c.7 0 .9.4 1 .9l.6 4.7c.1.4-.1.9-.7.9H8.4zm5.9 5.4c-.6 0-1.2-.5-1.2-1.2s.5-1.2 1.2-1.2c.6 0 1.2.5 1.2 1.2 0 .6-.5 1.2-1.2 1.2z"/>
</symbol><symbol id="icon-email-big" viewBox="0 0 45 45">
  <path fill-rule="evenodd" clip-rule="evenodd" d="M30.1 27.5l-4.3-4 4.3-4-.6-.6-6.3 5.8-6.2-5.8-.6.6 4.3 4-4.3 4 .6.6 4.3-4 2 1.7 1.9-1.7 4.3 4 .6-.6zM15.6 17.2c-.8 0-1.5.7-1.5 1.6v9.4c0 .9.7 1.6 1.5 1.6h15.3c.8 0 1.5-.7 1.5-1.6v-9.4c0-.9-.7-1.6-1.5-1.6H15.6z"/>
</symbol><symbol id="icon-email-small" viewBox="0 0 40 40">
  <path d="M12.02 15.33l6.75 4.23c.22.14.52.2.81.2.3 0 .6-.06.82-.2l6.75-4.23c.44-.28.85-1.36.05-1.36H11.97c-.8 0-.4 1.08.05 1.36zm15.33 2.3l-6.95 4.24c-.3.18-.52.2-.82.2-.3 0-.5-.02-.81-.2l-6.92-4.23c-.35-.22-.35.03-.35.23v7.65c0 .45.5 1.05.9 1.05h14.4c.4 0 .9-.6.9-1.05v-7.65c0-.2 0-.45-.35-.23z" fill="#161C35"/>
</symbol><symbol id="icon-fb" viewBox="0 0 45 45">
  <path d="M24.49 33.81h-5.36v-9.67H17v-4.79h2.07c-.16-2.17.23-3.75 1.2-4.83a4.88 4.88 0 013.6-1.52h3.75v4.61h-2.95a4.7 4.7 0 00-.2 1.74h3.14v4.79h-3.14l.02 9.67zm-4.17-1.12h2.97V23h3.14V20.5h-3.14v-.57c0-1.5 0-2.84.78-3.34l.15-.1h2.2v-2.36H23.9a3.82 3.82 0 00-2.74 1.12c-.79.92-1.11 2.47-.87 4.6l.08.63h-2.2V23h2.15v9.68z" fill="#192144"/>
</symbol><symbol id="icon-flag-australia" viewBox="0 0 71 48">
  <path d="M64.3.3H6A6.6 6.6 0 00.2 6v35.7a6.6 6.6 0 006.6 5.7h56.7a6.6 6.6 0 006.6-6.7V7A6.6 6.6 0 0064.3.3z" fill="#4658A9"/>
  <path d="M25.1.3H6.7A6.6 6.6 0 00.1 6.9v17.4h25V.3z" fill="#4658A9"/>
  <path d="M10.7 17.7v6.6h3.9v-6.8l6.7 6.7H25v-3l-7-7h7v-4h-7l7-7v-3h-3.8L14.6 7V.2h-4v6.6L4.7.7A6.7 6.7 0 00.8 3.8l6.4 6.4H.1v4h7.2L.1 21.4v2.8h4l6.6-6.5z" fill="#FFF"/>
  <path d="M11.7 15v9.3h1.9v-9.5l9.4 9.4h2V23l-9.7-9.8h9.8v-2h-9.8l9.8-9.7V.3H23l-9.4 9.4V.3h-2v9.3L3.3 1.3a6.7 6.7 0 00-1.7 1.5l8.4 8.5H.2v2h10L0 23.1v1h2.2l9.4-9.2z" fill="#EC5463"/>
  <path d="M41.8 13.2c-.3.2-.5 0-.4-.3l.4-1.4a1.3 1.3 0 00-.4-1.2l-1-1c-.3-.2-.2-.4.2-.4H42a1 1 0 001-.7l.4-1.6c.1-.4.3-.4.4 0l.6 1.5a1.1 1.1 0 001 .7h1.5c.4 0 .5.2.2.5l-1.2 1a1.2 1.2 0 00-.3 1.2l.3 1.2c.1.4 0 .5-.4.3l-1.2-.7a1.2 1.2 0 00-1.2 0l-1.3.9zm12 4c-.3.2-.5 0-.4-.3l.4-1.4a1.3 1.3 0 00-.4-1.2l-1-1c-.3-.2-.2-.4.2-.4H54a1 1 0 001-.7l.4-1.6c.1-.4.3-.4.4 0l.6 1.5a1.1 1.1 0 001 .7h1.5c.4 0 .5.2.2.5l-1.2 1a1.2 1.2 0 00-.3 1.2l.3 1.2c.1.4 0 .5-.4.3l-1.2-.7a1.2 1.2 0 00-1.2 0l-1.3.9zm-18 7c-.3.2-.5 0-.4-.3l.4-1.4a1.3 1.3 0 00-.4-1.2l-1-1c-.3-.2-.2-.4.2-.4H36a1 1 0 001-.7l.4-1.6c.1-.4.3-.4.4 0l.6 1.5a1.1 1.1 0 001 .7h1.5c.4 0 .5.2.2.5l-1.2 1a1.2 1.2 0 00-.3 1.2l.3 1.2c.1.4 0 .5-.4.3l-1.2-.7a1.2 1.2 0 00-1.2 0l-1.3.9zm-24.5 16c-.4.2-.7 0-.5-.4l.4-1.9a1.7 1.7 0 00-.5-1.5l-1.3-1.1c-.4-.4-.3-.6.2-.7h1.9a1.4 1.4 0 001.2-1l.6-2c0-.4.3-.4.5 0l.7 2a1.4 1.4 0 001.3 1h1.9c.5 0 .6.2.2.6l-1.4 1.2A1.6 1.6 0 0016 38l.5 1.6c.1.5-.1.6-.6.4l-1.5-1a1.5 1.5 0 00-1.5 0L11.3 40zm39-11c-.2.2-.3 0-.3-.2l.3-1a1 1 0 00-.3-.8l-.7-.7c-.2-.2-.2-.3 0-.3h1a.8.8 0 00.7-.5l.4-1.2c0-.2.2-.2.3 0l.4 1.1a.8.8 0 00.7.5h1c.3 0 .4.2.2.4l-.8.7a.9.9 0 00-.2.8l.3.9c0 .3 0 .4-.3.2l-.9-.5a.8.8 0 00-.8 0l-1 .6z" fill="#FFF"/>
</symbol><symbol id="icon-flag-belgium" viewBox="0 0 71 48">
  <path d="M7.3.8A6.4 6.4 0 00.9 7.3v34.3a6.4 6.4 0 006.4 6.3h17V.8h-17z" fill="#434A54"/>
  <path d="M24.3.8v47h23.3V.9H24.2z" fill="#FFCE54"/>
  <path d="M64.5.8h-17v47h17a6.4 6.4 0 006.4-6.3V7.2A6.4 6.4 0 0064.5.8z" fill="#ED5565"/>
</symbol><symbol id="icon-flag-bosnia" viewBox="0 0 71 48">
  <rect fill="#4758A9" x=".9" y=".13" width="70" height="47" rx="6.36"/>
  <path fill="#F6D660" d="M13.9.13h37v47z"/>
  <path d="M8.19 4.88c-.27-.08-.28-.24 0-.36l1-.44a.93.93 0 00.49-.73v-1c0-.28.17-.33.35-.12l.67.8c.2.22.52.3.8.2l1.08-.43c.26-.11.36 0 .2.24l-.62 1a.79.79 0 000 .84l.65.85c.17.22.08.36-.19.31l-1.06-.2a.88.88 0 00-.8.32l-.55.76c-.17.23-.33.19-.36-.09l-.11-1a.84.84 0 00-.55-.65l-1-.3zm4.32 5.5c-.27-.08-.28-.24 0-.36l1-.44a.92.92 0 00.49-.73v-1c0-.28.17-.33.35-.12l.67.8c.2.22.52.3.8.2l1.08-.43c.26-.1.35 0 .2.24l-.62 1a.79.79 0 000 .84l.65.85c.17.22.08.36-.19.31l-1.06-.2a.88.88 0 00-.8.32l-.55.76c-.17.23-.33.19-.36-.09l-.12-1a.84.84 0 00-.55-.65l-.99-.3zm4.33 5.5c-.27-.08-.28-.24 0-.36l1-.44a.92.92 0 00.49-.73v-1c0-.28.17-.33.35-.12l.67.81c.2.22.52.3.8.2l1.08-.43c.26-.11.35 0 .2.24l-.62 1a.79.79 0 000 .84l.65.85c.17.22.08.36-.19.31l-1.06-.2a.88.88 0 00-.8.32l-.55.76c-.16.23-.33.19-.36-.09l-.11-1a.84.84 0 00-.55-.65l-1-.31zm4.33 5.5c-.27-.08-.28-.24 0-.36l1-.44a.92.92 0 00.49-.73v-1c0-.28.17-.33.35-.12l.67.81c.2.22.52.3.8.2l1.08-.43c.26-.1.35 0 .2.24l-.62 1a.79.79 0 000 .84l.65.85c.17.22.08.36-.19.31l-1.06-.2a.88.88 0 00-.8.32l-.55.76c-.17.23-.33.19-.36-.09l-.12-1a.83.83 0 00-.55-.65l-.99-.31zm4.33 5.5c-.27-.08-.28-.24 0-.36l1-.44a.93.93 0 00.49-.73v-1c0-.28.17-.33.35-.12l.67.81c.2.22.52.3.8.2l1.08-.43c.26-.11.35 0 .2.24l-.62 1a.79.79 0 000 .84l.65.85c.17.22.08.36-.19.31l-1.06-.2a.88.88 0 00-.8.32l-.55.76c-.17.23-.33.19-.36-.09l-.12-1a.83.83 0 00-.55-.65l-.99-.31zm4.33 5.5c-.27-.08-.28-.24 0-.36l1-.44a.93.93 0 00.49-.73v-1c0-.28.17-.33.35-.12l.67.81c.2.22.52.3.8.2l1.08-.43c.26-.11.35 0 .2.24l-.62 1a.79.79 0 000 .84l.65.85c.17.22.08.36-.19.31l-1.06-.2a.88.88 0 00-.8.32l-.55.76c-.17.23-.33.19-.36-.09l-.12-1a.84.84 0 00-.55-.65l-.99-.31zm4.33 5.51c-.27-.08-.28-.24 0-.36l1-.44a.93.93 0 00.49-.73v-1c0-.28.17-.34.35-.12l.67.81c.2.22.52.3.8.2l1.08-.43c.26-.11.35 0 .2.24l-.62 1a.79.79 0 000 .84l.65.85c.17.22.08.36-.19.31l-1.06-.2a.88.88 0 00-.8.32l-.55.76c-.17.23-.33.19-.36-.09l-.12-1a.84.84 0 00-.55-.65l-.99-.31zm3.71 4.71c-.27-.08-.28-.24 0-.36l1-.44a.93.93 0 00.49-.73v-1c0-.28.17-.33.35-.12l.67.81c.2.22.52.3.8.2l1.08-.43c.26-.11.35 0 .21.24l-.62 1a.79.79 0 000 .84l.65.85c.17.22.09.36-.19.31l-1.06-.2a.88.88 0 00-.8.32l-.55.76c-.16.23-.33.19-.36-.09l-.12-1a.84.84 0 00-.55-.65l-1-.31z" fill="#FFF"/>
</symbol><symbol id="icon-flag-czech" viewBox="0 0 71 48">
  <path d="M64 .6H6.5A6.4 6.4 0 00.3 6.8v17.6h70V7A6.4 6.4 0 0063.9.5z" fill="#FFF"/>
  <path d="M.3 41.2a6.4 6.4 0 006.3 6.3H64a6.4 6.4 0 006.4-6.3V24.5H.3v16.7z" fill="#ED5565"/>
  <path d="M2.2 2.4a6.3 6.3 0 00-2 4.5v34.3a6.3 6.3 0 002 4.6l23-21.2-23-22.2z" fill="#4758A9"/>
</symbol><symbol id="icon-flag-dominica" viewBox="0 0 71 48">
  <rect fill="#039188" x=".1" y=".6" width="70" height="47" rx="6.4"/>
  <path fill="#FFF" d="M0 26.1h70.2v4.2H.1z"/>
  <path fill="#434A54" d="M0 22h70.2V26H.1z"/>
  <path fill="#F6BB42" d="M0 17.8h70.2V22H.1z"/>
  <path fill="#FFF" d="M37.4.6h4.2v47h-4.2z"/>
  <path fill="#434A54" d="M33.2.6h4.2v47h-4.2z"/>
  <path fill="#F6BB42" d="M29 .6h4.3v47H29z"/>
  <circle fill="#ED5565" cx="35.1" cy="24.1" r="12.9"/>
  <path d="M44.8 20.5h.8a.1.1 0 010 .2l-.6.5a.1.1 0 000 .1l.3.8a.1.1 0 01-.2.1l-.7-.4a.1.1 0 00-.1 0l-.7.5a.1.1 0 01-.2-.1l.2-.8a.1.1 0 000-.2l-.6-.5a.1.1 0 010-.2h.9a.1.1 0 00.1-.1l.3-.7a.1.1 0 01.2 0l.3.7a.1.1 0 000 .1zm-19.3 7h-.8a.1.1 0 010-.1l.5-.5a.1.1 0 000-.1L25 26a.1.1 0 01.2-.1l.7.4a.1.1 0 00.1 0l.7-.5a.1.1 0 01.2.1l-.3.8a.1.1 0 000 .2l.7.5a.1.1 0 010 .2h-1a.1.1 0 000 .1l-.3.7a.1.1 0 01-.2 0l-.3-.7a.1.1 0 000-.1zM45 27l.6.4a.1.1 0 010 .3h-.8a.1.1 0 00-.1 0l-.3.8a.1.1 0 01-.2 0l-.3-.7a.1.1 0 00-.1-.1h-.9a.1.1 0 010-.3l.6-.5-.2-.9a.1.1 0 01.2-.1l.7.5a.1.1 0 00.1 0l.7-.5a.1.1 0 01.2.2l-.3.7a.1.1 0 00.1.2zm-19.8-5.7l-.6-.4a.1.1 0 01.1-.3h.8l.3-.8a.1.1 0 01.3 0l.2.7a.1.1 0 00.2.1h.8a.1.1 0 01.1.3l-.7.4a.1.1 0 000 .2l.3.8a.1.1 0 01-.2.1l-.7-.5a.1.1 0 00-.2 0l-.6.5a.1.1 0 01-.2-.2l.2-.7a.1.1 0 000-.2zm16.3 11l.2.7a.1.1 0 01-.2.1l-.6-.4a.1.1 0 00-.1 0l-.7.5a.1.1 0 01-.2-.2l.2-.7a.1.1 0 000-.2l-.7-.5a.1.1 0 010-.2h.9a.1.1 0 00.1-.1l.3-.8a.1.1 0 01.2 0l.3.8a.1.1 0 00.1 0h.8a.1.1 0 010 .3l-.6.5a.1.1 0 000 .1zM28.8 16l-.2-.8a.1.1 0 01.2 0l.6.4a.1.1 0 00.1 0l.7-.5a.1.1 0 01.2.1l-.3.8a.1.1 0 000 .1l.8.5a.1.1 0 010 .3H30a.1.1 0 00-.1 0l-.3.8a.1.1 0 01-.2 0L29 17a.1.1 0 00-.1 0h-.8a.1.1 0 010-.3l.6-.4a.1.1 0 000-.2zm12-.5l.7-.4a.1.1 0 01.2.1l-.2.7a.1.1 0 000 .2l.6.4a.1.1 0 010 .3h-.8a.1.1 0 00-.1 0l-.3.9a.1.1 0 01-.2 0l-.3-.8a.1.1 0 00-.1 0h-.9a.1.1 0 010-.3l.7-.5a.1.1 0 000-.2l-.3-.7a.1.1 0 01.2-.1l.7.4a.1.1 0 00.2 0zm-11.4 17l-.6.5a.1.1 0 01-.2-.1l.2-.7a.1.1 0 000-.2l-.6-.4a.1.1 0 010-.3h.8a.1.1 0 00.1 0l.3-.9a.1.1 0 01.2 0l.3.8a.1.1 0 00.1 0h.9a.1.1 0 010 .3l-.7.5a.1.1 0 000 .2l.3.7a.1.1 0 01-.2.1l-.7-.4a.1.1 0 00-.2 0zm5.4-18.7l.2-.8a.1.1 0 01.2 0l.3.7a.1.1 0 000 .1h.9a.1.1 0 010 .2l-.6.5a.1.1 0 000 .2l.3.8a.1.1 0 01-.2.1l-.7-.5a.1.1 0 00-.1 0l-.7.5a.1.1 0 01-.2-.1l.3-.8a.1.1 0 000-.2l-.6-.4a.1.1 0 010-.3h.8zm.7 20.5l-.2.8a.1.1 0 01-.3 0l-.2-.8a.1.1 0 00-.1 0h-.8a.1.1 0 01-.1-.3l.6-.5a.1.1 0 000-.1l-.2-.8a.1.1 0 01.2-.2l.6.5a.1.1 0 00.2 0l.7-.4a.1.1 0 01.2.1l-.3.8a.1.1 0 000 .1l.6.5a.1.1 0 010 .2h-.8a.1.1 0 000 .1zm3.4-5a2.9 2.9 0 000-1 2.6 2.6 0 00-.1-1 6.1 6.1 0 00-.6-3.7 9.9 9.9 0 00-1.2-2h.1a1 1 0 001.2-.3v-.1a1.5 1.5 0 01-.4-.2V21a1.1 1.1 0 00.3-.2v-.1a1.5 1.5 0 01-.5-.2v-.1a1.2 1.2 0 00.3-.2v-.2a2 2 0 01-.6-.2v-.2l.2-.1v-.1a1.6 1.6 0 01-.5-.3h.3v-.2c-.7-.4-1.4-1.2-1.9-1.5a1.9 1.9 0 00-1.9.1 1 1 0 00-.3.7H33c-.4.1-.7.5-.4 1.3h.2a1.5 1.5 0 010-.2h.1a.6.6 0 00.5 0 .8.8 0 00.2 0h.1a.4.4 0 000 .2.4.4 0 00-.2.3.4.4 0 00-.2.3 6.3 6.3 0 00-.6 3.5 5.2 5.2 0 001.4 3.2l.1.3v.4c0 .5.3.8.5.8 0 .2 0 .4.2.6a1.2 1.2 0 00-.4.4h-1.3c-.2 0-.1-.2-.2-.5a.8.8 0 00-1-.1c-.3.1 0 .5-.6.5v.1c0 .3.2.6.4.8h2.6a1 1 0 001 .5h.1a.5.5 0 00.4 0 .5.5 0 00.5 0 .7.7 0 00.3 0c.2.2.3.4.5.4 0 .4.2.6.3.6.2 0 .3-.3.3-.6.3 0 .4-.4.5-1h.2a.6.6 0 000-.8v-.4h.1l.2.3a.1.1 0 100 .3z" fill="#039188"/>
</symbol><symbol id="icon-flag-france" viewBox="0 0 71 48">
  <path d="M6.5.1A6.4 6.4 0 00.2 6.5v34.2a6.4 6.4 0 006.3 6.4h17V.1h-17z" fill="#4758A9"/>
  <path d="M23.5.1v47h23.3V.1H23.5z" fill="#FFF"/>
  <path d="M63.8.1h-17v47h17a6.4 6.4 0 006.3-6.4V6.5A6.4 6.4 0 0063.8 0z" fill="#ED5565"/>
</symbol><symbol id="icon-flag-germany" viewBox="0 0 512 512">
  <path d="M473.7 88.3H38.3A38.3 38.3 0 000 126.6v73.5h512v-73.5a38.3 38.3 0 00-38.3-38.3z" fill="#464655"/>
  <path d="M0 385.4a38.3 38.3 0 0038.3 38.3h435.4a38.3 38.3 0 0038.3-38.3v-73.5H0v73.5z" fill="#f6bb42"/>
  <path fill="#ff4b55" d="M0 200h512V312H0z"/>
</symbol><symbol id="icon-flag-seychelles" viewBox="0 0 71 48">
  <path d="M3.9 47l.5-.1 66.5-30.6v-9A6.4 6.4 0 0064.5 1H46.6L2.3 45.6A6.4 6.4 0 003.9 47z" fill="#ED5565"/>
  <path d="M7.2 1A6.4 6.4 0 001 7.4v34.2c0 1 .2 1.8.6 2.7L24 1H7.3z" fill="#4758A9"/>
  <path d="M25.1 1h-1L1.5 44.3a6.4 6.4 0 00.9 1.3L46.6 1H25.1z" fill="#FFCE54"/>
  <path fill="#FFF" d="M70.9 30.9V16.3L4.4 46.9z"/>
  <path d="M4.4 46.9L4 47a6.3 6.3 0 003.2.9h57.3a6.4 6.4 0 006.4-6.4V30.9l-66.5 16z" fill="#57A863"/>
</symbol><symbol id="icon-flag-sri-lanka" viewBox="0 0 71 48">
  <rect fill="#FFCE54" x=".3" y=".5" width="70" height="47" rx="6.4"/>
  <path fill="#57A863" d="M5.3 42.5v-37h8v37z"/>
  <path fill="#FF8416" d="M13.4 42.5v-37h8v37z"/>
  <path fill="#ED5565" d="M26.5 42.5v-37h38.8v37z"/>
  <path d="M59.5 16.7a.7.7 0 00-.5-.4.7.7 0 00-.6.3.6.6 0 00-.2.5 4.3 4.3 0 01-1.3-.9 11.6 11.6 0 00-3.6-2.1 8.2 8.2 0 00-2.9-.2 4.6 4.6 0 00-2 1 2 2 0 000 3v.4a1.2 1.2 0 000 1.3l.4.4.2-.4a.5.5 0 01.3-.4l1.2.3a8.4 8.4 0 004.3 0 4.7 4.7 0 012.2 0 1 1 0 01.6.8 1 1 0 01-.2.9c-.3.2-.4.3-1.3.6a6 6 0 01-2.1.1 9.6 9.6 0 00-2.2.1 9.5 9.5 0 01-2.4.1h-1.7l-.4-.4a1.2 1.2 0 01-.2-.6V21l.2.1a.2.2 0 00.3 0l-.1-.7a1.3 1.3 0 01-.1-.4.2.2 0 00.1 0l.2-1.4c0-1.3 0-1.6-.4-2v-.1l.1-.2a2 2 0 00.6-1l.1-.8-.6.6a.5.5 0 01-.5.2.4.4 0 01-.4-.2 2.4 2.4 0 00-1-.6.3.3 0 00-.3 0 .2.2 0 00-.1.2 1.4 1.4 0 01-.2.3v.1l-.2-.1a1.8 1.8 0 00-.7-.5h-.6l-.1.4v.3l-.4-.1a1.4 1.4 0 00-1.2-.3H41l.2.4-.1.3a1 1 0 01-.9.4 2 2 0 00-.7.1 2.3 2.3 0 01-.6.1l-.4.1a.7.7 0 00-.2-.6.8.8 0 00-.6-.3.8.8 0 00-.7.4 1.1 1.1 0 000 1v.4a3 3 0 00.7.8l.5.6.4.4.6.3v-.5s0 .2.2.2c0 0 .2.2.3 0a.2.2 0 00.1-.1.7.7 0 010-.1l.6.7.1.2a7.3 7.3 0 01-2.5-.7c-.6-.3-.8-.4-1-.2a.3.3 0 000 .3 1 1 0 00.3.5.7.7 0 00-.2.4l-.2.6-.2.6h.7a4.8 4.8 0 00.6-.1l-.4.6.6-.2a2.5 2.5 0 00.5-.1h.1v.1c.1.1.3.4.5.3.2 0 .2-.1.3-.3v.1c.2.4.4.6.6.6l.2-.3a.5.5 0 01.1-.2.3.3 0 01.2 0h.1c0 .2 0 .4-.7.9a5 5 0 00-2.6 3.6 3.4 3.4 0 000 1.2l-.9-1-1.2-1a1 1 0 00.6-1 .8.8 0 00-.6-.7 1 1 0 00-.4 0v-2.5a30.1 30.1 0 01.9-8.4c-.1-.1-.3 0-.6.2a4.3 4.3 0 00-1.4 1.5c-.7 1.4-1 3.2-1 7a23.2 23.2 0 000 2.3 1 1 0 00-.3 0 .8.8 0 00-.7.7 1 1 0 00.7 1l.4.1a.3.3 0 000 .3.3.3 0 000 .1.3.3 0 00-.2.1v.5a.5.5 0 00.2.2.4.4 0 000 .4l.1.2a.4.4 0 000 .2.4.4 0 00.3.5.5.5 0 000 .2h-.2a.5.5 0 00-.4 0 .4.4 0 000 .6.8.8 0 00.5.1.7.7 0 01-.1.2l-.3.4.2.3a.8.8 0 010 .9.5.5 0 00-.5-.2.4.4 0 00-.3.3c0 .3 0 .4.3.6a1 1 0 00.5.3.6.6 0 01-.1 0l-.5.5.7.1h.2c0 .2.3.6.5.6s.2-.1.3-.2a.8.8 0 00.1-.4h.2l.8-.1-.6-.4v-.1a1.1 1.1 0 00.7-.6.5.5 0 000-.4.5.5 0 00-.5-.2.4.4 0 00-.2.3h-.1a.8.8 0 010-1c.2-.3.2-.4 0-.6a.8.8 0 01-.2-.4.5.5 0 00.6 0 .4.4 0 00.1-.4.5.5 0 00-.3-.3.5.5 0 00.2 0 .8.8 0 00.2 0c.2.2.2.2.2.8s0 .9.1 1l.3.2a.2.2 0 00.2-.3.3.3 0 01.2 0c.2 0 .4.3.6.5l1 .7h.2a1.4 1.4 0 00.4-.1 2.8 2.8 0 001-1 7.7 7.7 0 00.8.6l.7.3.3.8c.5 1.5.3 2-.2 2.3l-1 .1c-.6 0-.8 0-1 .3a2 2 0 00-.6 1 .3.3 0 00.2.3l.6-.2a.6.6 0 00.5.2 1 1 0 00.7-.2h.1a.8.8 0 00.6.2 1 1 0 00.6-.2l.6.1c.5 0 .5 0 .8-.3a.8.8 0 00.2-.7l-.1-.6a1 1 0 010-.2l.3-.1a5.9 5.9 0 00.6-.3c.2 0 .8-.6.8-.8 0-.3-.2-.3-.6-.3-.4 0-.6-.1-.6-.3-.1-.1 0-.5.3-1l.4-.7h.3l1.6-.7a8 8 0 013.6-1v.3a3.2 3.2 0 001 1.9 2.6 2.6 0 01.7 2.2v1l-.2.2-.8.2c-.6 0-.8 0-1 .2a1.1 1.1 0 00-.4.7.3.3 0 000 .4.3.3 0 00.2 0 1.3 1.3 0 00.5-.2H50.3a.7.7 0 001 0 .6.6 0 00.6.3c.2 0 .4 0 .5-.3l.2.1.6.2a.6.6 0 00.3 0c.2 0 .4 0 .7-.2h.2a.6.6 0 00.4.2.8.8 0 00.6-.2l.1-.1h.1a.9.9 0 00.8.2.6.6 0 00.4-.2c.2.2.6.3 1 .2a.3.3 0 00.2-.2.7.7 0 00-.1-.5 2 2 0 01-.5-1c0-.3 0-.5.5-.8.5-.4.7-.8.6-1a.4.4 0 00-.4-.3c-.2 0-.4-.2-.5-.5-.4-.8-.3-1.6.2-3.1a6.6 6.6 0 00.6-2.9 3 3 0 00-.2-1.5 5.3 5.3 0 00-.5-1l-.2-.3.2-.2a2.1 2.1 0 00.9-2 2.1 2.1 0 00-1.4-1.6 2.6 2.6 0 00-1.4-.2 11.6 11.6 0 00-1.6.1 10.9 10.9 0 01-1.6.2c-.7 0-.8 0-1-.2-.3-.1-.4-.1-.4-.5a.4.4 0 00-.3-.3c-.2 0-.6.3-.7.6a1.6 1.6 0 01-.2-.4c0-.2 0-.4.4-.6l.6-.3-.5-.3a1.1 1.1 0 00-.8 0 1.2 1.2 0 00-.8.4h-.2a.7.7 0 01-.2-.8.8.8 0 01.5-.5.6.6 0 01.5 0 .2.2 0 010 .1c.2.3.4.3.4.3.3 0 .4-.6.4-1 .4 0 .7.3 1 .6a1.1 1.1 0 010 1l-.4.7.6-.1a1.6 1.6 0 001-.6 1.5 1.5 0 000-1.3c.3 0 .5.3.7.5v.6a1.8 1.8 0 01-.2.4c-.1.2-.2.3-.1.4a.2.2 0 00.2.1 1.6 1.6 0 00.9-.4l.2-.4c.3.3.6.6 1 .7.4.2.6.2.7 0l-.2-.2a2 2 0 01-.2-.6l1 .8a2.4 2.4 0 001.7.8 1.1 1.1 0 001-.5 1 1 0 00.3-1.1zM34.4 28a.7.7 0 00.3 0 1 1 0 00-.2 0h-.1zm20.9 6a2.2 2.2 0 00-1.2.6 2.5 2.5 0 00-.2-.5c-.1-.4 0-.7.5-1.3 0-.1.5-.6.5-.8a.3.3 0 00-.1-.2l-.5-.1c-.2 0-.3 0-.4-.2s-.3-.3 0-.7l.2-.3.2.2c1.6 1 1.6 1 1.7 2 0 1.1 0 1.2-.8 1.3z" fill="#FFCE54"/>
</symbol><symbol id="icon-flag-thailand" viewBox="0 0 71 48">
  <rect fill="#ED5565" x=".3" y=".1" width="70" height="47" rx="6.4"/>
  <path fill="#FFF" d="M.3 9.6h70v28H.3z"/>
  <path fill="#4758A9" d="M.3 13.6h70v20H.3z"/>
</symbol><symbol id="icon-flag-united-kingdom" viewBox="0 0 71 48">&gt;
  <path d="M30.6.7h-3.2V15L2.4 2.5a6.6 6.6 0 00-2 4.2l19.2 9.6h-7l-12.2-6V12l8.7 4.4H.4v3h30.2V.8zm37.6 45.2a6.6 6.6 0 002.2-4.2L50.9 32h7l12.5 6.2v-1.7l-9-4.5h9v-3.1H40v18.8h3.1V33.3L68.2 46zM43.1.7H40v18.8h30.4v-3.2h-9l9-4.4V6.6L51 16.3h-7L69.4 3.6a6.7 6.7 0 00-1-1.2L43 15V.7zM.4 28.9V32H9L.4 36.4v5.2L19.6 32h7L1.4 44.6a6.7 6.7 0 001 1.2l25-12.5v14.4h3.1V28.8H.4z" fill="#FFF"/>
  <path fill="#EC5565" d="M70.4 28.9v-9.4H40V.7h-9.4v18.8H.4v9.4h30.2v18.8H40V28.8z"/>
  <path d="M19.6 16.3L.4 6.7v3.5l12.2 6.1h7zm31.3 0l19.5-9.7a6.6 6.6 0 00-1.1-3L43.9 16.3h7zM51 32l19.5 9.7a6.7 6.7 0 000-.7v-2.8L57.8 32h-7zm-31.3 0L.4 41.6a6.6 6.6 0 001 3L26.6 32h-7z" fill="#EC5565"/>
  <path d="M43.1 15L68.3 2.4A6.6 6.6 0 0064.4.7H43.1V15zm27.3 21.5V32h-9zm0-20.2V12l-9 4.4zm-68 29.5A6.6 6.6 0 007 47.7h20.4V33.3l-25 12.5zm40.7-12.5v14.4h20.6a6.6 6.6 0 004.5-1.8L43.1 33.3zM27.4.7h-21a6.6 6.6 0 00-4 1.8l25 12.5V.7zM.4 32v4.3L9 32zm0-20v4.3H9z" fill="#4658A9"/>
</symbol><symbol id="icon-flag-usa" viewBox="0 0 71 48">
  <path d="M7 47.6h57.8a6.6 6.6 0 005.4-3.6H1.6A6.6 6.6 0 007 47.6z" fill="#ED5565"/>
  <path d="M1 40.4v1.3a6.6 6.6 0 00.6 2.3H70a6.6 6.6 0 00.7-2.3v-1.3H1z" fill="#FFF"/>
  <path fill="#ED5565" d="M1 36.8h69.8v3.6H1z"/>
  <path fill="#FFF" d="M1 33.2h69.8v3.6H1z"/>
  <path fill="#ED5565" d="M1 29.6h69.8v3.6H1z"/>
  <path fill="#FFF" d="M1 26h69.8v3.6H1z"/>
  <path fill="#ED5565" d="M1 22.3h69.8V26H1z"/>
  <path fill="#FFF" d="M1 18.7h69.8v3.6H1z"/>
  <path fill="#ED5565" d="M1 15.1h69.8v3.6H1z"/>
  <path fill="#FFF" d="M1 11.5h69.8V15H1z"/>
  <path fill="#ED5565" d="M1 7.9h69.8v3.6H1z"/>
  <path d="M70.8 7.9V6.5a6.6 6.6 0 00-.6-2.2H1.5a6.6 6.6 0 00-.7 2.2V8h70z" fill="#FFF"/>
  <path d="M64.8.7H7a6.6 6.6 0 00-5.4 3.6h68.6A6.6 6.6 0 0064.8.7z" fill="#ED5565"/>
  <path d="M34 26V.6H7a6.6 6.6 0 00-6 5.8V26h33z" fill="#4A89DC"/>
  <path fill="#FFF" d="M5 3.7l-.3.9H4l.7.5-.3.8.7-.5.7.5-.2-.8.7-.5h-1zM5 8l-.3.8H4l.7.5-.3.8.7-.5.7.6-.2-.9.7-.5h-1zm0 4.2l-.3.8H4l.7.6-.3.8.7-.5.7.5-.2-.8.7-.6h-1zm0 4.3l-.3.8H4l.7.5-.3.8.7-.5.7.5-.2-.8.7-.5h-1zm.3 5l-.3-.8-.3.8H4l.7.5-.3.9.7-.5.7.5-.2-.9.7-.5zM7.5 5.8l-.3.9h-.8l.7.5-.3.8.7-.5.7.5-.2-.8.7-.5h-1zm0 4.3l-.3.8h-.8l.7.5-.3.9.7-.5.7.5-.2-.9.7-.5h-1zm0 4.2l-.3.9h-.8l.7.5-.3.8.7-.5.7.5-.2-.8.7-.5h-1zm.3 5.1l-.3-.8-.3.8h-.8l.7.5-.3.9.7-.6.7.6-.2-.9.7-.5zM10 3.7l-.3.9H9l.7.5-.3.8.7-.5.7.5-.2-.8.7-.5h-1zM10 8l-.3.8H9l.7.5-.3.8.7-.5.7.6-.2-.9.7-.5h-1zm0 4.2l-.3.8H9l.7.6-.3.8.7-.5.7.5-.2-.8.7-.6h-1zm0 4.3l-.3.8H9l.7.5-.3.8.7-.5.7.5-.2-.8.7-.5h-1zm.3 5l-.3-.8-.3.8H9l.7.5-.3.9.7-.5.7.5-.2-.9.7-.5zm2.2-15.7l-.3.9h-.8l.7.5-.3.8.7-.5.7.5-.2-.8.7-.5h-1zm0 4.3l-.3.8h-.8l.7.5-.3.9.7-.5.7.5-.2-.9.7-.5h-1zm0 4.2l-.3.9h-.8l.7.5-.3.8.7-.5.7.5-.2-.8.7-.5h-1zm.3 5.1l-.3-.8-.3.8h-.8l.7.5-.3.9.7-.6.7.6-.2-.9.7-.5zM15 3.7l-.3.9H14l.7.5-.3.8.7-.5.7.5-.3-.8.8-.5h-1zM15 8l-.3.8H14l.7.5-.3.8.7-.5.7.6-.3-.9.8-.5h-1zm0 4.2l-.3.8H14l.7.6-.3.8.7-.5.7.5-.3-.8.8-.6h-1zm0 4.3l-.3.8H14l.7.5-.3.8.7-.5.7.5-.3-.8.8-.5h-1zm.3 5l-.3-.8-.3.8H14l.7.5-.3.9.7-.5.7.5-.3-.9.8-.5zm2.2-15.7l-.3.9h-.9l.7.5-.2.8.7-.5.7.5-.3-.8.8-.5h-1zm0 4.3l-.3.8h-.9l.7.5-.2.9.7-.5.7.5-.3-.9.8-.5h-1zm0 4.2l-.3.9h-.9l.7.5-.2.8.7-.5.7.5-.3-.8.8-.5h-1zm.3 5.1l-.3-.8-.3.8h-.9l.7.5-.2.9.7-.6.7.6-.3-.9.8-.5zM20 3.7l-.3.9h-.9l.7.5-.2.8.7-.5.7.5-.3-.8.7-.5h-.8zM20 8l-.3.8h-.9l.7.5-.2.8.7-.5.7.6-.3-.9.7-.5h-.8zm0 4.2l-.3.8h-.9l.7.6-.2.8.7-.5.7.5-.3-.8.7-.6h-.8zm0 4.3l-.3.8h-.9l.7.5-.2.8.7-.5.7.5-.3-.8.7-.5h-.8zm.3 5l-.3-.8-.3.8h-.9l.8.5-.3.9.7-.5.7.5-.3-.9.7-.5zm2.2-15.7l-.3.9h-.9l.7.5-.2.8.7-.5.7.5-.3-.8.7-.5h-.8zm0 4.3l-.3.8h-.9l.7.5-.2.9.7-.5.7.5-.3-.9.7-.5h-.8zm0 4.2l-.3.9h-.9l.7.5-.2.8.7-.5.7.5-.3-.8.7-.5h-.8zm.3 5.1l-.3-.8-.3.8h-.9l.7.5-.2.9.7-.6.7.6-.3-.9.7-.5zM25 3.7l-.3.9h-.9l.7.5-.2.8.7-.5.7.5-.3-.8.7-.5h-.8zM25 8l-.3.8h-.9l.7.5-.2.8.7-.5.7.6-.3-.9.7-.5h-.8zm0 4.2l-.3.8h-.9l.7.6-.2.8.7-.5.7.5-.3-.8.7-.6h-.8zm0 4.3l-.3.8h-.9l.7.5-.2.8.7-.5.7.5-.3-.8.7-.5h-.8zm.3 5l-.3-.8-.3.8h-.9l.7.5-.2.9.7-.5.7.5-.3-.9.7-.5zm2.2-15.7l-.3.9h-.9l.7.5-.2.8.7-.5.7.5-.3-.8.7-.5h-.9zm0 4.3l-.3.8h-.9l.7.5-.2.9.7-.5.7.5-.3-.9.7-.5h-.9zm0 4.2l-.3.9h-.9l.7.5-.2.8.7-.5.7.5-.3-.8.7-.5h-.9zm.3 5.1l-.3-.8-.3.8h-.9l.7.5-.2.9.7-.6.7.6-.3-.9.7-.5zm1.7-14.3l-.2.8.7-.5.7.5-.3-.8.7-.5h-.9l-.2-.9-.3.9h-.9zM30 8l-.3.8h-.9l.7.5-.2.8.7-.5.7.6-.3-.9.7-.5h-.9zm0 4.2l-.3.8h-.9l.7.6-.2.8.7-.5.7.5-.3-.8.7-.6h-.9zm0 4.3l-.3.8h-.9l.7.5-.2.8.7-.5.7.5-.3-.8.7-.5h-.9zm.2 5l-.2-.8-.3.8h-.9l.7.5-.2.9.7-.5.7.5-.3-.9.7-.5z"/>
</symbol><symbol id="icon-htmlacademy" viewBox="0 0 27 34">
<style type="text/css">
	.st0{fill:#231F20;}
</style>
<path class="st0" d="M13.6,0l-0.2,0L0,1.4V26l13.5,8L27,26l0,0V1.4L13.6,0z M19.3,16.8l-0.9,0.5l-5-3l0,1.4l3.8,2.3l-0.8,0.5l-3-1.8
	l0,1.4l1.9,1.1l-1.8,1.1L2,13.6l11.4-6.8L25,13.5l-4.5,2.6l-7.1-4.2l0,1.4L19.3,16.8z M1.9,15.1l11.4,6.8l0,1l-8-4.7l0,1.4l8,4.8
	l0,1.1l-8-4.7l0,1.4l8,4.8l0,0l8.2-4.9v-1.3l0-0.1V17l3.4-2v10l-11.6,6.9L1.9,24.9V15.1z M1.9,12.1V3.1l11.6-1.2l11.6,1.2v9
	L13.5,5.3l0-0.1l-0.1,0l-0.1,0v0.1L1.9,12.1z"/>
</symbol><symbol id="icon-instagram" viewBox="0 0 45 45">
  <path d="M26.96 16.8a3.25 3.25 0 013.24 3.24v7.92a3.25 3.25 0 01-3.24 3.24h-7.92a3.25 3.25 0 01-3.23-3.24v-7.92a3.25 3.25 0 013.23-3.24h7.92zm0-1.08h-7.92a4.32 4.32 0 00-4.32 4.32v7.92a4.32 4.32 0 004.32 4.32h7.92a4.32 4.32 0 004.32-4.32v-7.92a4.32 4.32 0 00-4.32-4.32z" fill="#192144"/>
  <path d="M23 20.82a3.19 3.19 0 110 6.38 3.19 3.19 0 010-6.38zm0-1.08a4.27 4.27 0 100 8.54 4.27 4.27 0 000-8.54zM27.43 20.56a.96.96 0 100-1.93.96.96 0 000 1.93z" fill="#192144"/>
</symbol><symbol id="icon-phone-big" viewBox="0 0 45 45">
  <path fill-rule="evenodd" clip-rule="evenodd" d="M22.5 15.09c-2.8 0-5.6.47-6.62 1.41-.84.78-1.12 2.16-1.22 3.04l-.01.12c0 .34.3.62.65.62l2.57-.2h.07c.35-.02.63-.29.63-.63v-1.21c0-.38.33-.68.73-.68h6.4c.4 0 .72.3.72.68v1.21c0 .34.29.61.64.62l.07.01 2.57.2c.36 0 .65-.28.65-.62l-.01-.12c-.1-.88-.38-2.26-1.22-3.04-1.02-.94-3.82-1.41-6.62-1.41zm0 8.03c-.72 0-1.3.55-1.3 1.23 0 .69.58 1.24 1.3 1.24.72 0 1.3-.55 1.3-1.24 0-.68-.58-1.23-1.3-1.23zm-.98-2.78v-.77a.8.8 0 00-.82-.78.8.8 0 00-.82.78v.77l-4.4 4.45c-.31.28-.5.67-.5 1.1v1.24c0 .69.58 1.24 1.3 1.24h.33v.77c0 .43.37.77.82.77a.8.8 0 00.82-.77v-.77h8.5v.77c0 .43.37.77.82.77a.8.8 0 00.82-.77v-.77h.32c.73 0 1.31-.55 1.31-1.24V25.9c0-.43-.19-.82-.5-1.1l-4.4-4.45v-.77a.8.8 0 00-.82-.78.8.8 0 00-.82.78v.77h-1.96zm.98 1.54c1.45 0 2.62 1.1 2.62 2.47a2.55 2.55 0 01-2.62 2.47 2.55 2.55 0 01-2.62-2.47 2.55 2.55 0 012.62-2.47z"/>
</symbol><symbol id="icon-phone-small" viewBox="0 0 40 40">
  <path d="M19.8 19.2c0 .2.1.4.3.4.4 0 .7.3.7.7 0 .1.2.3.4.3l.3-.3c0-.8-.6-1.4-1.4-1.4-.2 0-.3.1-.3.3zm5.5 1.4c.2 0 .4-.2.4-.3 0-3-2.5-5.5-5.6-5.5-.2 0-.3.1-.3.3 0 .2.1.3.3.3 2.7 0 4.9 2.2 4.9 4.9 0 .1.1.3.3.3z" fill="#161C35"/>
  <path d="M22.9 20.3l.3.3c.2 0 .4-.2.4-.3 0-2-1.6-3.5-3.5-3.5-.2 0-.3.2-.3.4s.1.3.3.3c1.6 0 2.8 1.2 2.8 2.8zm-2.8-7.6c-.2 0-.3.2-.3.3 0 .2.1.4.3.4 3.9 0 7 3 7 6.9 0 .1.1.3.3.3.2 0 .4-.2.4-.3 0-4.2-3.5-7.6-7.7-7.6zm3.4 11.1l-.5.3c-.8.4-1.3 1.5-2.3.6l-2.4-2.4-2.1-2c-1-1.4.1-1.7.5-2.4l.3-.5a2.6 2.6 0 00-.5-3c-.5-.6-1.1-.8-1.8-.8s-1.4.2-2 .7v.2c-1 1-1.1 2.5-.4 4.4.7 1.9 2 3.9 3.9 5.7 2.8 2.7 5.9 4.3 8 4.3a3 3 0 002.2-.8l.2-.1a2.6 2.6 0 000-3.7c-.8-.9-2.1-1-3.1-.5z" fill="#161C35"/>
</symbol><symbol id="icon-plane" viewBox="0 0 19 21">
  <path d="M18.9 18.9L15.2 8.8c-.1-.5.1-.7.3-1.1l2.8-4.6c.7-1.2.6-2.3-.1-2.8s-1.7-.1-2.5 1l-3 4.5c-.3.4-.4.7-.9.8-.1-.1-10.3.4-10.6.4-.3 0-.7.1-1 .6-.4.7-.2.9.2 1l8.3 2.7c.3 0 .3.2.2.6l-1.6 2.6c-.1.2-.2.2-.4.3l-2.8 1-.4.3-.4.6c-.2.3-.1.5.2.5a20.6 20.6 0 002.5.3c.2.1.4.3.2.6-.3.6-.4 1.2-.2 1.3s.6-.2 1-.7c.2-.3.4-.2.6 0 .2-.1.4.1.4.1l1 1.9c.2.3.4.3.6 0l.4-.6.1-.5-.3-3.1.1-.5 1.6-2.5c.2-.3.4-.3.6-.1l5.7 6.7c.3.3.5.4.9-.2.4-.4.3-.8.2-1z"/>
</symbol><symbol id="icon-progress-circle">
  <circle cx="30" cy="30" r="30" fill="#000" opacity="0.6"/>
  <path d="M22.6 3a28 28 0 109-1" stroke="#FF8D30" stroke-width="4" stroke-linecap="round" fill="none"/>
</symbol><symbol id="icon-run" viewBox="0 0 20 21">
  <ellipse cx="14.3" cy="2" rx="2.1" ry="2"/>
  <path d="M19.4 4.6c-.5-.2-1.2-.1-1.4.4l-.9 1.6L13 4.3l-.6-.1H7.9c-.4 0-.7.1-.9.5L5.3 7.6c-.3.5-.1 1.1.4 1.3l.5.1c.4 0 .8-.2 1-.5l1.4-2.4h1.6l-4.7 8.1H1.1c-.6 0-1.1.4-1.1 1s.5 1 1.1 1h5c.4 0 .7-.2.9-.5l1.9-3.2 3 2.6-.2 4.9c-.1.5.4 1 1 1h.1c.6 0 1-.4 1.1-.9l.3-5.4c0-.3-.1-.6-.3-.8l-2.6-2.2L14 7.1l3.1 1.8c0 .1.4.2.6.1.3-.1.5-.2.7-.5L19.9 6c.3-.5.1-1.1-.5-1.4z"/>
</symbol><symbol id="icon-user" viewBox="0 0 20 20">
  <ellipse cx="10" cy="6" rx="5" ry="6"/>
  <path d="M19.8 17.1a9.1 9.1 0 00-4.8-4.2c-.6-.2-1.3-.2-1.8.1-1 .6-2 .9-3.2.9s-2.2-.3-3.2-.9c-.5-.2-1.2-.3-1.8 0a9.1 9.1 0 00-4.8 4.2C-.5 18.5.6 20 2.1 20h15.8c1.5 0 2.6-1.5 1.9-2.9z"/>
</symbol><symbol id="icon-vk" viewBox="0 0 45 45">
  <path d="M27.77 29.83a2.98 2.98 0 01-1.55-.47 7.57 7.57 0 01-1.32-1.15c-.32-.33-.87-.88-1.07-.88-.21 0-.36.69-.35 1.18 0 .33-.12.66-.35.9-.26.22-.57.35-.9.38H20.8c-2.05-.05-4-.85-5.51-2.25-2.73-2.53-5.08-7.36-5.17-7.57a1.01 1.01 0 01.1-1.1c.29-.25.65-.38 1.02-.37h3.12c.24.04.48.13.7.26.2.14.36.33.46.55.32.7.7 1.36 1.1 2 .97 1.5 1.4 1.85 1.56 1.92.17-.7.22-1.43.14-2.15.03-.33-.03-.66-.15-.96a.98.98 0 00-.58-.22l-.54-.51c-.1-.5.44-.93.82-1.1a6.39 6.39 0 012.34-.28h.52a6.7 6.7 0 011.6.15c1.26.27 1.21 1.3 1.16 2.49 0 .34-.03.75-.03 1.21v.36c-.03.33-.01.66.06.98a6.8 6.8 0 001.54-1.86c.43-.67.8-1.38 1.13-2.1a1.18 1.18 0 011.18-.72h3.46c.74 0 1.18.22 1.36.64.18.42.12 1.25-1.75 3.46l-.74.85a5.5 5.5 0 00-.92 1.19c.28.32.6.6.95.85.85.65 1.6 1.43 2.22 2.3a1.2 1.2 0 01.2 1.27 1.71 1.71 0 01-1.4.75l-2.81.03-.17-.03zm-3.94-3.63c.66 0 1.24.6 1.86 1.22.33.37.7.7 1.11.97.31.21.67.32 1.04.32h.07l2.82-.04c.14 0 .28-.04.4-.1l-.07-.12a9.87 9.87 0 00-1.99-2.04c-.88-.75-1.33-1.1-1.39-1.68-.05-.58.37-1.08 1.2-2.04l.74-.83a8.05 8.05 0 001.52-2.21 4.16 4.16 0 00-.5 0H27.4a.4.4 0 00-.18 0c-.34.8-.75 1.56-1.22 2.29-1.4 2.11-2.06 2.4-2.53 2.4a.87.87 0 01-.41-.1c-.75-.44-.75-1.39-.7-2.08v-.32c0-.49 0-.9.03-1.27.06-1.26 0-1.27-.28-1.33a6.3 6.3 0 00-1.38-.12h-.5c-.48-.01-.95.01-1.42.07.07.05.13.12.19.19.3.49.46 1.06.43 1.63.1 1.24.05 2.85-.74 3.24-.14.07-.29.1-.44.1-.7 0-1.38-.66-2.54-2.44a17.6 17.6 0 01-1.2-2.14l-.05-.08a.9.9 0 00-.24-.08H11.2c.44.92 2.51 4.97 4.84 7.09 1.3 1.2 2.99 1.9 4.76 1.97h1.37a.74.74 0 00.2-.07v-.07c0-.2 0-1.95 1.17-2.25.1-.04.19-.06.29-.08z" fill="#192144"/>
</symbol></svg>