<svg width="45" height="45" viewBox="0 0 45 45" fill="none" xmlns="http://www.w3.org/2000/svg">
  <path d="M26.96 16.8a3.25 3.25 0 013.24 3.24v7.92a3.25 3.25 0 01-3.24 3.24h-7.92a3.25 3.25 0 01-3.23-3.24v-7.92a3.25 3.25 0 013.23-3.24h7.92zm0-1.08h-7.92a4.32 4.32 0 00-4.32 4.32v7.92a4.32 4.32 0 004.32 4.32h7.92a4.32 4.32 0 004.32-4.32v-7.92a4.32 4.32 0 00-4.32-4.32z" fill="#192144"/>
  <path d="M23 20.82a3.19 3.19 0 110 6.38 3.19 3.19 0 010-6.38zm0-1.08a4.27 4.27 0 100 8.54 4.27 4.27 0 000-8.54zM27.43 20.56a.96.96 0 100-1.93.96.96 0 000 1.93z" fill="#192144"/>
</svg>

